<svg xmlns="http://www.w3.org/2000/svg" viewBox="0 0 16 16"><g class="nc-icon-wrapper" stroke="currentColor"><line x1="0.5" y1="7.5" x2="0.5" y2="11.5" fill="none" stroke="currentColor" stroke-linecap="round" stroke-linejoin="round" data-cap="butt"/> <line x1="15.5" y1="7.5" x2="15.5" y2="11.5" fill="none" stroke="currentColor" stroke-linecap="round" stroke-linejoin="round" data-cap="butt"/> <line x1="4.5" y1="13.5" x2="4.5" y2="15.5" fill="none" stroke="currentColor" stroke-linecap="round" stroke-linejoin="round" data-cap="butt"/> <line x1="11.5" y1="13.5" x2="11.5" y2="15.5" fill="none" stroke="currentColor" stroke-linecap="round" stroke-linejoin="round" data-cap="butt"/> <line x1="2.5" y1="7.5" x2="13.5" y2="7.5" fill="none" stroke="currentColor" stroke-linecap="round" stroke-linejoin="round" data-cap="butt"/> <path d="M8,1.5H8A5.5,5.5,0,0,1,13.5,7v6.5a0,0,0,0,1,0,0H2.5a0,0,0,0,1,0,0V7A5.5,5.5,0,0,1,8,1.5Z" fill="none" stroke="currentColor" stroke-linecap="round" stroke-linejoin="round" data-cap="butt"/> <line x1="3.5" y1="0.5" x2="5.242" y2="2.242" fill="none" stroke="currentColor" stroke-linecap="round" stroke-linejoin="round" data-cap="butt"/> <line x1="12.5" y1="0.5" x2="10.758" y2="2.242" fill="none" stroke="currentColor" stroke-linecap="round" stroke-linejoin="round" data-cap="butt"/> <circle cx="6" cy="5" r="1" data-cap="butt" data-color="color-2" data-stroke="none" stroke="none"/> <circle cx="10" cy="5" r="1" data-cap="butt" data-color="color-2" data-stroke="none" stroke="none"/></g></svg>