<svg xmlns="http://www.w3.org/2000/svg" viewBox="0 0 16 16"><g class="nc-icon-wrapper" stroke="currentColor"><path d="M14,11.782a9.995,9.995,0,0,1-.907,1.693c-.589.9-1.419,2.013-2.449,2.023-.914.009-1.149-.595-2.39-.588s-1.5.6-2.414.59c-1.029-.009-1.816-1.018-2.405-1.915-1.647-2.507-1.82-5.45-.8-7.014A3.645,3.645,0,0,1,5.563,4.809c1.09,0,1.776.6,2.678.6.875,0,1.408-.6,2.669-.6a3.561,3.561,0,0,1,2.683,1.415A3.069,3.069,0,0,0,14,11.782Z" fill="none" stroke="currentColor" stroke-linecap="round" stroke-linejoin="round" data-cap="butt"/> <path d="M10.6,2.7A3.639,3.639,0,0,0,11.413,0,3.935,3.935,0,0,0,8.871,1.367,3.382,3.382,0,0,0,8.04,4,3.325,3.325,0,0,0,10.6,2.7Z" data-cap="butt" data-color="color-2" data-stroke="none" stroke="none"/></g></svg>