<svg xmlns="http://www.w3.org/2000/svg" viewBox="0 0 16 16"><g class="nc-icon-wrapper" stroke="currentColor"><rect x="8.5" y="8.5" width="3" height="3" fill="none" stroke="currentColor" stroke-linecap="round" stroke-linejoin="round"/> <path d="M8.5,8.5h-1a1,1,0,0,1-1-1h0a1,1,0,0,1,1-1h0a1,1,0,0,1,1,1Z" fill="none" stroke="currentColor" stroke-linecap="round" stroke-linejoin="round"/> <path d="M11.5,8.5h1a1,1,0,0,0,1-1h0a1,1,0,0,0-1-1h0a1,1,0,0,0-1,1Z" fill="none" stroke="currentColor" stroke-linecap="round" stroke-linejoin="round"/> <path d="M8.5,11.5h-1a1,1,0,0,0-1,1h0a1,1,0,0,0,1,1h0a1,1,0,0,0,1-1Z" fill="none" stroke="currentColor" stroke-linecap="round" stroke-linejoin="round"/> <path d="M11.5,11.5h1a1,1,0,0,1,1,1h0a1,1,0,0,1-1,1h0a1,1,0,0,1-1-1Z" fill="none" stroke="currentColor" stroke-linecap="round" stroke-linejoin="round"/> <rect x="4.5" y="4.5" width="11" height="11" rx="1" ry="1" fill="none" stroke="currentColor" stroke-linecap="round" stroke-linejoin="round"/> <path d="M2.5,11.5h-1a1,1,0,0,1-1-1v-9a1,1,0,0,1,1-1h9a1,1,0,0,1,1,1v1" fill="none" stroke-linecap="round" stroke-linejoin="round" data-color="color-2"/></g></svg>