<svg xmlns="http://www.w3.org/2000/svg" viewBox="0 0 16 16"><g class="nc-icon-wrapper" stroke="currentColor"><path d="M6.5,15.5V10A1.5,1.5,0,0,1,8,8.5H8A1.5,1.5,0,0,1,9.5,10v5.5" fill="none" stroke-linecap="round" stroke-linejoin="round" data-cap="butt" data-color="color-2"/> <path d="M13,8a4,4,0,0,1,2.5-3.7V1.5a1,1,0,0,0-1-1H1.5a1,1,0,0,0-1,1V4.3A4,4,0,0,1,3,8,4,4,0,0,1,.5,11.7v2.8a1,1,0,0,0,1,1h13a1,1,0,0,0,1-1V11.7A4,4,0,0,1,13,8Z" fill="none" stroke="currentColor" stroke-linecap="round" stroke-linejoin="round" data-cap="butt"/></g></svg>