<svg xmlns="http://www.w3.org/2000/svg" viewBox="0 0 16 16"><g class="nc-icon-wrapper" stroke="currentColor"><path d="M.5,3.5v-2a1,1,0,0,1,1-1h2" fill="none" stroke="currentColor" stroke-linecap="round" stroke-linejoin="round" data-cap="butt"/> <path d="M12.5.5h2a1,1,0,0,1,1,1v2" fill="none" stroke="currentColor" stroke-linecap="round" stroke-linejoin="round" data-cap="butt"/> <line x1="6.5" y1="0.5" x2="9.5" y2="0.5" fill="none" stroke-linecap="round" stroke-linejoin="round" data-cap="butt" data-color="color-2"/> <path d="M.5,12.5v2a1,1,0,0,0,1,1h2" fill="none" stroke="currentColor" stroke-linecap="round" stroke-linejoin="round" data-cap="butt"/> <path d="M12.5,15.5h2a1,1,0,0,0,1-1v-2" fill="none" stroke="currentColor" stroke-linecap="round" stroke-linejoin="round" data-cap="butt"/> <line x1="6.5" y1="15.5" x2="9.5" y2="15.5" fill="none" stroke-linecap="round" stroke-linejoin="round" data-cap="butt" data-color="color-2"/> <line x1="0.5" y1="6.5" x2="0.5" y2="9.5" fill="none" stroke-linecap="round" stroke-linejoin="round" data-cap="butt" data-color="color-2"/> <line x1="15.5" y1="6.5" x2="15.5" y2="9.5" fill="none" stroke-linecap="round" stroke-linejoin="round" data-cap="butt" data-color="color-2"/></g></svg>